<svg width="66" height="88" viewBox="0 0 66 88" fill="none" xmlns="http://www.w3.org/2000/svg">
<g clip-path="url(#clip0_28_2)">
<path d="M66.0003 53.7453C56.53 77.2406 33.8425 63.0266 33.8425 63.0266C26.8815 77.0859 15.3831 86.1266 2.11433 86.1781C-0.652855 86.1781 -0.738793 81.9844 2.11433 81.9844C13.1831 81.9328 22.8253 74.6453 29.1331 63.0609C22.069 65.7938 8.74871 67.8563 1.35808 48.9328C20.0925 41.2156 28.7034 50.8578 32.0034 56.7531C33.705 52.5594 34.9253 48.0047 35.7159 43.0547C35.7159 43.0547 11.705 46.8187 10.0206 26.1937C30.4909 17.9609 36.2487 39.3766 36.2487 39.3766C36.5237 36.5063 36.8159 30.3359 36.8159 30.1984C36.8159 30.1984 18.5456 17.5312 30.2675 1.80469C51.6831 9.19531 40.8206 29.7172 40.8206 29.7172C40.9065 29.9922 40.9065 33.8078 40.8206 35.4578C40.8206 35.4578 48.5893 20.1609 64.2643 25.575C63.5425 48.6063 39.8753 43.8625 39.8753 43.8625C39.119 48.5719 37.9503 53.0406 36.4378 57.1828C36.4378 57.1828 50.7034 41.4047 66.0003 53.7453Z" fill="#FCCD2A"/>
</g>
<defs>
<clipPath id="clip0_28_2">
<rect width="66" height="88" fill="white" transform="translate(0.000244141)"/>
</clipPath>
</defs>
</svg>
